<mxfile host="app.diagrams.net" agent="Mozilla/5.0 (Windows NT 10.0; Win64; x64) AppleWebKit/537.36 (KHTML, like Gecko) Chrome/138.0.0.0 Safari/537.36" version="28.2.0">
  <diagram name="Page-1" id="H3eBibEbLKbmrt75WjiY">
    <mxGraphModel dx="786" dy="425" grid="1" gridSize="10" guides="1" tooltips="1" connect="1" arrows="1" fold="1" page="1" pageScale="1" pageWidth="827" pageHeight="1169" math="0" shadow="0">
      <root>
        <mxCell id="0" />
        <mxCell id="1" parent="0" />
        <mxCell id="hZAp_NnM1Y1J12ZBTNoi-24" value="Livre" style="swimlane;whiteSpace=wrap;html=1;align=center;labelBackgroundColor=none;rounded=0;" parent="1" vertex="1">
          <mxGeometry x="16.25" y="60" width="155" height="240" as="geometry" />
        </mxCell>
        <mxCell id="hZAp_NnM1Y1J12ZBTNoi-26" value="&lt;u style=&quot;text-wrap-mode: wrap;&quot;&gt;&lt;font style=&quot;font-size: 14px;&quot;&gt;ISBN&lt;/font&gt;&lt;/u&gt;" style="text;html=1;align=left;verticalAlign=middle;resizable=0;points=[];autosize=1;strokeColor=none;fillColor=none;labelBackgroundColor=none;rounded=0;" parent="hZAp_NnM1Y1J12ZBTNoi-24" vertex="1">
          <mxGeometry x="5" y="30" width="60" height="30" as="geometry" />
        </mxCell>
        <mxCell id="hZAp_NnM1Y1J12ZBTNoi-27" value="&lt;span style=&quot;text-wrap-mode: wrap;&quot;&gt;&lt;font style=&quot;font-size: 14px;&quot;&gt;titre&lt;/font&gt;&lt;/span&gt;" style="text;html=1;align=left;verticalAlign=middle;resizable=0;points=[];autosize=1;strokeColor=none;fillColor=none;labelBackgroundColor=none;rounded=0;" parent="hZAp_NnM1Y1J12ZBTNoi-24" vertex="1">
          <mxGeometry x="5" y="60" width="50" height="30" as="geometry" />
        </mxCell>
        <mxCell id="hZAp_NnM1Y1J12ZBTNoi-98" value="&lt;span data-end=&quot;232&quot; data-start=&quot;215&quot;&gt;&lt;font style=&quot;font-size: 14px;&quot;&gt;nombre_ exemplaires&lt;/font&gt;&lt;/span&gt;" style="text;html=1;align=left;verticalAlign=middle;resizable=0;points=[];autosize=1;strokeColor=none;fillColor=none;" parent="hZAp_NnM1Y1J12ZBTNoi-24" vertex="1">
          <mxGeometry x="5" y="100" width="160" height="30" as="geometry" />
        </mxCell>
        <mxCell id="hZAp_NnM1Y1J12ZBTNoi-30" value="Adhérent" style="swimlane;whiteSpace=wrap;html=1;labelBackgroundColor=none;rounded=0;" parent="1" vertex="1">
          <mxGeometry x="450" y="60" width="120" height="210" as="geometry" />
        </mxCell>
        <mxCell id="hZAp_NnM1Y1J12ZBTNoi-31" value="&lt;u&gt;&lt;font style=&quot;font-size: 14px;&quot;&gt;numéro&lt;/font&gt;&lt;/u&gt;" style="text;html=1;align=left;verticalAlign=middle;resizable=0;points=[];autosize=1;strokeColor=none;fillColor=none;labelBackgroundColor=none;rounded=0;" parent="hZAp_NnM1Y1J12ZBTNoi-30" vertex="1">
          <mxGeometry x="10" y="28" width="70" height="30" as="geometry" />
        </mxCell>
        <mxCell id="hZAp_NnM1Y1J12ZBTNoi-32" value="&lt;font style=&quot;font-size: 14px;&quot;&gt;nom&lt;/font&gt;" style="text;html=1;align=left;verticalAlign=middle;resizable=0;points=[];autosize=1;strokeColor=none;fillColor=none;labelBackgroundColor=none;rounded=0;" parent="hZAp_NnM1Y1J12ZBTNoi-30" vertex="1">
          <mxGeometry x="10" y="58" width="50" height="30" as="geometry" />
        </mxCell>
        <mxCell id="hZAp_NnM1Y1J12ZBTNoi-33" value="&lt;font style=&quot;font-size: 14px;&quot;&gt;prénom&lt;/font&gt;" style="text;html=1;align=left;verticalAlign=middle;resizable=0;points=[];autosize=1;strokeColor=none;fillColor=none;labelBackgroundColor=none;rounded=0;" parent="hZAp_NnM1Y1J12ZBTNoi-30" vertex="1">
          <mxGeometry x="10" y="88" width="70" height="30" as="geometry" />
        </mxCell>
        <mxCell id="hZAp_NnM1Y1J12ZBTNoi-34" value="&lt;font style=&quot;font-size: 14px;&quot;&gt;adresse&lt;/font&gt;" style="text;html=1;align=left;verticalAlign=middle;resizable=0;points=[];autosize=1;strokeColor=none;fillColor=none;labelBackgroundColor=none;rounded=0;" parent="hZAp_NnM1Y1J12ZBTNoi-30" vertex="1">
          <mxGeometry x="10" y="118" width="70" height="30" as="geometry" />
        </mxCell>
        <mxCell id="hZAp_NnM1Y1J12ZBTNoi-35" value="&lt;font style=&quot;font-size: 14px;&quot;&gt;email&lt;/font&gt;" style="text;html=1;align=left;verticalAlign=middle;resizable=0;points=[];autosize=1;strokeColor=none;fillColor=none;labelBackgroundColor=none;rounded=0;" parent="hZAp_NnM1Y1J12ZBTNoi-30" vertex="1">
          <mxGeometry x="10" y="148" width="60" height="30" as="geometry" />
        </mxCell>
        <mxCell id="hZAp_NnM1Y1J12ZBTNoi-36" value="&lt;font style=&quot;font-size: 14px;&quot;&gt;type&lt;/font&gt;" style="text;html=1;align=left;verticalAlign=middle;resizable=0;points=[];autosize=1;strokeColor=none;fillColor=none;labelBackgroundColor=none;rounded=0;" parent="hZAp_NnM1Y1J12ZBTNoi-30" vertex="1">
          <mxGeometry x="10" y="178" width="50" height="30" as="geometry" />
        </mxCell>
        <mxCell id="hZAp_NnM1Y1J12ZBTNoi-48" value="&lt;h3&gt;&lt;br&gt;&lt;/h3&gt;" style="ellipse;whiteSpace=wrap;html=1;align=center;fontStyle=2;labelPosition=center;verticalLabelPosition=middle;verticalAlign=middle;" parent="1" vertex="1">
          <mxGeometry x="240" y="38" width="140" height="120" as="geometry" />
        </mxCell>
        <mxCell id="hZAp_NnM1Y1J12ZBTNoi-61" value="" style="endArrow=none;html=1;exitX=0.02;exitY=1.067;exitDx=0;exitDy=0;exitPerimeter=0;entryX=0.008;entryY=0.11;entryDx=0;entryDy=0;entryPerimeter=0;" parent="1" source="hZAp_NnM1Y1J12ZBTNoi-67" target="hZAp_NnM1Y1J12ZBTNoi-30" edge="1">
          <mxGeometry width="50" height="50" relative="1" as="geometry">
            <mxPoint x="160" y="70" as="sourcePoint" />
            <mxPoint x="260" y="63" as="targetPoint" />
          </mxGeometry>
        </mxCell>
        <mxCell id="hZAp_NnM1Y1J12ZBTNoi-67" value="&lt;font style=&quot;font-size: 14px;&quot;&gt;&lt;b&gt;(0,n)&lt;/b&gt;&lt;/font&gt;" style="text;html=1;align=center;verticalAlign=middle;resizable=0;points=[];autosize=1;strokeColor=none;fillColor=none;" parent="1" vertex="1">
          <mxGeometry x="170" y="50" width="50" height="30" as="geometry" />
        </mxCell>
        <mxCell id="hZAp_NnM1Y1J12ZBTNoi-68" value="&lt;font style=&quot;font-size: 14px;&quot;&gt;&lt;b&gt;(0,n)&lt;/b&gt;&lt;/font&gt;" style="text;html=1;align=center;verticalAlign=middle;resizable=0;points=[];autosize=1;strokeColor=none;fillColor=none;" parent="1" vertex="1">
          <mxGeometry x="400" y="50" width="50" height="30" as="geometry" />
        </mxCell>
        <mxCell id="hZAp_NnM1Y1J12ZBTNoi-69" value="" style="ellipse;whiteSpace=wrap;html=1;" parent="1" vertex="1">
          <mxGeometry x="235" y="200" width="140" height="90" as="geometry" />
        </mxCell>
        <mxCell id="hZAp_NnM1Y1J12ZBTNoi-79" value="&lt;b style=&quot;font-size: 14px;&quot;&gt;(0,n)&lt;/b&gt;" style="text;html=1;align=center;verticalAlign=middle;resizable=0;points=[];autosize=1;strokeColor=none;fillColor=none;" parent="1" vertex="1">
          <mxGeometry x="400" y="210" width="50" height="30" as="geometry" />
        </mxCell>
        <mxCell id="hZAp_NnM1Y1J12ZBTNoi-85" value="&lt;b&gt;&lt;font style=&quot;font-size: 14px;&quot;&gt;Emprunter&lt;/font&gt;&lt;/b&gt;" style="text;html=1;align=center;verticalAlign=middle;resizable=0;points=[];autosize=1;strokeColor=none;fillColor=none;" parent="1" vertex="1">
          <mxGeometry x="260" y="50" width="90" height="30" as="geometry" />
        </mxCell>
        <mxCell id="hZAp_NnM1Y1J12ZBTNoi-86" value="&lt;font style=&quot;font-size: 14px;&quot;&gt;date_début&lt;/font&gt;" style="text;html=1;align=center;verticalAlign=middle;resizable=0;points=[];autosize=1;strokeColor=none;fillColor=none;" parent="1" vertex="1">
          <mxGeometry x="260" y="90" width="90" height="30" as="geometry" />
        </mxCell>
        <mxCell id="hZAp_NnM1Y1J12ZBTNoi-88" value="&lt;span style=&quot;text-align: left;&quot;&gt;&lt;font style=&quot;font-size: 14px;&quot;&gt;date_retour_&lt;/font&gt;&lt;/span&gt;prévue" style="text;html=1;align=center;verticalAlign=middle;resizable=0;points=[];autosize=1;strokeColor=none;fillColor=none;" parent="1" vertex="1">
          <mxGeometry x="240" y="110" width="140" height="30" as="geometry" />
        </mxCell>
        <mxCell id="hZAp_NnM1Y1J12ZBTNoi-89" value="" style="endArrow=none;html=1;rounded=0;" parent="1" edge="1">
          <mxGeometry width="50" height="50" relative="1" as="geometry">
            <mxPoint x="170" y="240" as="sourcePoint" />
            <mxPoint x="450" y="240" as="targetPoint" />
          </mxGeometry>
        </mxCell>
        <mxCell id="hZAp_NnM1Y1J12ZBTNoi-92" value="&lt;b style=&quot;font-size: 14px; text-wrap-mode: wrap;&quot;&gt;réserver&lt;/b&gt;" style="text;html=1;align=center;verticalAlign=middle;resizable=0;points=[];autosize=1;strokeColor=none;fillColor=none;" parent="1" vertex="1">
          <mxGeometry x="265" y="210" width="80" height="30" as="geometry" />
        </mxCell>
        <mxCell id="hZAp_NnM1Y1J12ZBTNoi-93" value="&lt;font style=&quot;font-size: 14px;&quot;&gt;&amp;nbsp;date_réservation&lt;/font&gt;" style="text;html=1;align=center;verticalAlign=middle;resizable=0;points=[];autosize=1;strokeColor=none;fillColor=none;" parent="1" vertex="1">
          <mxGeometry x="240" y="240" width="130" height="30" as="geometry" />
        </mxCell>
        <mxCell id="hZAp_NnM1Y1J12ZBTNoi-94" value="&lt;font style=&quot;font-size: 14px;&quot;&gt;statut&lt;/font&gt;" style="text;html=1;align=center;verticalAlign=middle;resizable=0;points=[];autosize=1;strokeColor=none;fillColor=none;" parent="1" vertex="1">
          <mxGeometry x="275" y="260" width="60" height="30" as="geometry" />
        </mxCell>
        <mxCell id="hZAp_NnM1Y1J12ZBTNoi-99" value="&lt;b style=&quot;font-size: 14px;&quot;&gt;(0,n)&lt;/b&gt;" style="text;html=1;align=center;verticalAlign=middle;resizable=0;points=[];autosize=1;strokeColor=none;fillColor=none;" parent="1" vertex="1">
          <mxGeometry x="175" y="208" width="50" height="30" as="geometry" />
        </mxCell>
        <mxCell id="hZAp_NnM1Y1J12ZBTNoi-100" value="Auteur" style="swimlane;whiteSpace=wrap;html=1;fontSize=14;" parent="1" vertex="1">
          <mxGeometry x="16.25" y="470" width="145" height="130" as="geometry" />
        </mxCell>
        <mxCell id="hZAp_NnM1Y1J12ZBTNoi-101" value="&lt;u&gt;&lt;font style=&quot;font-size: 14px;&quot;&gt;code&lt;/font&gt;&lt;/u&gt;" style="text;html=1;align=left;verticalAlign=middle;resizable=0;points=[];autosize=1;strokeColor=none;fillColor=none;" parent="hZAp_NnM1Y1J12ZBTNoi-100" vertex="1">
          <mxGeometry x="5" y="40" width="50" height="30" as="geometry" />
        </mxCell>
        <mxCell id="hZAp_NnM1Y1J12ZBTNoi-102" value="&lt;font style=&quot;font-size: 14px;&quot;&gt;nom&lt;/font&gt;" style="text;html=1;align=left;verticalAlign=middle;resizable=0;points=[];autosize=1;strokeColor=none;fillColor=none;" parent="hZAp_NnM1Y1J12ZBTNoi-100" vertex="1">
          <mxGeometry x="5" y="70" width="50" height="30" as="geometry" />
        </mxCell>
        <mxCell id="hZAp_NnM1Y1J12ZBTNoi-107" value="&lt;font style=&quot;font-size: 14px;&quot;&gt;prénom&lt;/font&gt;" style="text;html=1;align=left;verticalAlign=middle;resizable=0;points=[];autosize=1;strokeColor=none;fillColor=none;" parent="hZAp_NnM1Y1J12ZBTNoi-100" vertex="1">
          <mxGeometry x="5" y="100" width="70" height="30" as="geometry" />
        </mxCell>
        <mxCell id="hZAp_NnM1Y1J12ZBTNoi-108" value="&lt;font style=&quot;font-size: 14px;&quot;&gt;&lt;b&gt;écrir&lt;/b&gt;&lt;/font&gt;" style="ellipse;whiteSpace=wrap;html=1;" parent="1" vertex="1">
          <mxGeometry x="37.5" y="350" width="102.5" height="50" as="geometry" />
        </mxCell>
        <mxCell id="hZAp_NnM1Y1J12ZBTNoi-109" value="" style="endArrow=none;html=1;rounded=0;exitX=0.5;exitY=0;exitDx=0;exitDy=0;" parent="1" source="hZAp_NnM1Y1J12ZBTNoi-108" edge="1">
          <mxGeometry width="50" height="50" relative="1" as="geometry">
            <mxPoint x="390" y="400" as="sourcePoint" />
            <mxPoint x="90" y="300" as="targetPoint" />
          </mxGeometry>
        </mxCell>
        <mxCell id="hZAp_NnM1Y1J12ZBTNoi-110" value="" style="endArrow=none;html=1;rounded=0;exitX=0.5;exitY=0;exitDx=0;exitDy=0;entryX=0.5;entryY=1;entryDx=0;entryDy=0;" parent="1" source="hZAp_NnM1Y1J12ZBTNoi-100" target="hZAp_NnM1Y1J12ZBTNoi-108" edge="1">
          <mxGeometry width="50" height="50" relative="1" as="geometry">
            <mxPoint x="390" y="400" as="sourcePoint" />
            <mxPoint x="440" y="350" as="targetPoint" />
          </mxGeometry>
        </mxCell>
        <mxCell id="hZAp_NnM1Y1J12ZBTNoi-111" value="&lt;b style=&quot;font-size: 14px;&quot;&gt;(1,n)&lt;/b&gt;" style="text;html=1;align=center;verticalAlign=middle;resizable=0;points=[];autosize=1;strokeColor=none;fillColor=none;" parent="1" vertex="1">
          <mxGeometry x="37.5" y="310" width="50" height="30" as="geometry" />
        </mxCell>
        <mxCell id="hZAp_NnM1Y1J12ZBTNoi-112" value="&lt;b style=&quot;font-size: 14px;&quot;&gt;(1,n)&lt;/b&gt;" style="text;html=1;align=center;verticalAlign=middle;resizable=0;points=[];autosize=1;strokeColor=none;fillColor=none;" parent="1" vertex="1">
          <mxGeometry x="37.5" y="430" width="50" height="30" as="geometry" />
        </mxCell>
        <mxCell id="hZAp_NnM1Y1J12ZBTNoi-114" value="&lt;font style=&quot;font-size: 14px;&quot;&gt;Genre&lt;/font&gt;" style="swimlane;whiteSpace=wrap;html=1;" parent="1" vertex="1">
          <mxGeometry x="240" y="480" width="120" height="120" as="geometry" />
        </mxCell>
        <mxCell id="hZAp_NnM1Y1J12ZBTNoi-115" value="&lt;u&gt;&lt;font style=&quot;font-size: 14px;&quot;&gt;code&lt;/font&gt;&lt;/u&gt;" style="text;html=1;align=left;verticalAlign=middle;resizable=0;points=[];autosize=1;strokeColor=none;fillColor=none;" parent="hZAp_NnM1Y1J12ZBTNoi-114" vertex="1">
          <mxGeometry x="10" y="30" width="50" height="30" as="geometry" />
        </mxCell>
        <mxCell id="hZAp_NnM1Y1J12ZBTNoi-116" value="&lt;font style=&quot;font-size: 14px;&quot;&gt;nom&lt;/font&gt;" style="text;html=1;align=left;verticalAlign=middle;resizable=0;points=[];autosize=1;strokeColor=none;fillColor=none;" parent="hZAp_NnM1Y1J12ZBTNoi-114" vertex="1">
          <mxGeometry x="10" y="50" width="50" height="30" as="geometry" />
        </mxCell>
        <mxCell id="hZAp_NnM1Y1J12ZBTNoi-117" value="&lt;font style=&quot;font-size: 14px;&quot;&gt;description&lt;/font&gt;" style="text;html=1;align=left;verticalAlign=middle;resizable=0;points=[];autosize=1;strokeColor=none;fillColor=none;" parent="hZAp_NnM1Y1J12ZBTNoi-114" vertex="1">
          <mxGeometry x="10" y="75" width="90" height="30" as="geometry" />
        </mxCell>
        <mxCell id="hZAp_NnM1Y1J12ZBTNoi-118" value="&lt;b&gt;&lt;font style=&quot;font-size: 14px;&quot;&gt;concerner&lt;/font&gt;&lt;/b&gt;" style="ellipse;whiteSpace=wrap;html=1;" parent="1" vertex="1">
          <mxGeometry x="205" y="370" width="110" height="60" as="geometry" />
        </mxCell>
        <mxCell id="hZAp_NnM1Y1J12ZBTNoi-119" value="" style="endArrow=none;html=1;rounded=0;" parent="1" edge="1">
          <mxGeometry width="50" height="50" relative="1" as="geometry">
            <mxPoint x="160" y="400" as="sourcePoint" />
            <mxPoint x="160" y="300" as="targetPoint" />
          </mxGeometry>
        </mxCell>
        <mxCell id="hZAp_NnM1Y1J12ZBTNoi-120" value="" style="endArrow=none;html=1;rounded=0;entryX=0;entryY=0.5;entryDx=0;entryDy=0;" parent="1" target="hZAp_NnM1Y1J12ZBTNoi-118" edge="1">
          <mxGeometry width="50" height="50" relative="1" as="geometry">
            <mxPoint x="160" y="400" as="sourcePoint" />
            <mxPoint x="440" y="350" as="targetPoint" />
          </mxGeometry>
        </mxCell>
        <mxCell id="hZAp_NnM1Y1J12ZBTNoi-122" value="" style="endArrow=none;html=1;rounded=0;entryX=0.583;entryY=0;entryDx=0;entryDy=0;entryPerimeter=0;exitX=1;exitY=0.5;exitDx=0;exitDy=0;" parent="1" source="hZAp_NnM1Y1J12ZBTNoi-118" target="hZAp_NnM1Y1J12ZBTNoi-114" edge="1">
          <mxGeometry width="50" height="50" relative="1" as="geometry">
            <mxPoint x="521" y="400" as="sourcePoint" />
            <mxPoint x="520" y="460" as="targetPoint" />
          </mxGeometry>
        </mxCell>
        <mxCell id="hZAp_NnM1Y1J12ZBTNoi-123" value="&lt;b style=&quot;font-size: 14px;&quot;&gt;(1,n)&lt;/b&gt;" style="text;html=1;align=center;verticalAlign=middle;resizable=0;points=[];autosize=1;strokeColor=none;fillColor=none;" parent="1" vertex="1">
          <mxGeometry x="155" y="318" width="50" height="30" as="geometry" />
        </mxCell>
        <mxCell id="hZAp_NnM1Y1J12ZBTNoi-124" value="&lt;b style=&quot;font-size: 14px;&quot;&gt;(1,n)&lt;/b&gt;" style="text;html=1;align=center;verticalAlign=middle;resizable=0;points=[];autosize=1;strokeColor=none;fillColor=none;" parent="1" vertex="1">
          <mxGeometry x="305" y="440" width="50" height="30" as="geometry" />
        </mxCell>
        <mxCell id="hZAp_NnM1Y1J12ZBTNoi-127" value="&lt;font style=&quot;font-size: 14px; font-weight: normal;&quot;&gt;Edition&lt;/font&gt;" style="swimlane;whiteSpace=wrap;html=1;" parent="1" vertex="1">
          <mxGeometry x="480" y="480" width="120" height="120" as="geometry" />
        </mxCell>
        <mxCell id="hZAp_NnM1Y1J12ZBTNoi-129" value="&lt;font style=&quot;font-size: 14px;&quot;&gt;nom&lt;/font&gt;" style="text;html=1;align=left;verticalAlign=middle;resizable=0;points=[];autosize=1;strokeColor=none;fillColor=none;" parent="hZAp_NnM1Y1J12ZBTNoi-127" vertex="1">
          <mxGeometry x="5" y="58" width="50" height="30" as="geometry" />
        </mxCell>
        <mxCell id="hZAp_NnM1Y1J12ZBTNoi-130" value="&lt;font style=&quot;font-size: 14px;&quot;&gt;adresse&lt;/font&gt;" style="text;html=1;align=left;verticalAlign=middle;resizable=0;points=[];autosize=1;strokeColor=none;fillColor=none;" parent="hZAp_NnM1Y1J12ZBTNoi-127" vertex="1">
          <mxGeometry x="5" y="88" width="70" height="30" as="geometry" />
        </mxCell>
        <mxCell id="hZAp_NnM1Y1J12ZBTNoi-128" value="&lt;u&gt;&lt;font style=&quot;font-size: 14px;&quot;&gt;code&lt;/font&gt;&lt;/u&gt;" style="text;html=1;align=left;verticalAlign=middle;resizable=0;points=[];autosize=1;strokeColor=none;fillColor=none;" parent="hZAp_NnM1Y1J12ZBTNoi-127" vertex="1">
          <mxGeometry x="5" y="28" width="50" height="30" as="geometry" />
        </mxCell>
        <mxCell id="hZAp_NnM1Y1J12ZBTNoi-131" value="" style="ellipse;whiteSpace=wrap;html=1;" parent="1" vertex="1">
          <mxGeometry x="480" y="310" width="140" height="80" as="geometry" />
        </mxCell>
        <mxCell id="hZAp_NnM1Y1J12ZBTNoi-132" value="" style="endArrow=none;html=1;rounded=0;exitX=1;exitY=1;exitDx=0;exitDy=0;entryX=0;entryY=0.5;entryDx=0;entryDy=0;" parent="1" source="hZAp_NnM1Y1J12ZBTNoi-24" target="hZAp_NnM1Y1J12ZBTNoi-131" edge="1">
          <mxGeometry width="50" height="50" relative="1" as="geometry">
            <mxPoint x="390" y="410" as="sourcePoint" />
            <mxPoint x="440" y="360" as="targetPoint" />
          </mxGeometry>
        </mxCell>
        <mxCell id="hZAp_NnM1Y1J12ZBTNoi-133" value="" style="endArrow=none;html=1;rounded=0;entryX=1;entryY=0.5;entryDx=0;entryDy=0;exitX=0;exitY=0.5;exitDx=0;exitDy=0;" parent="1" source="hZAp_NnM1Y1J12ZBTNoi-131" target="hZAp_NnM1Y1J12ZBTNoi-131" edge="1">
          <mxGeometry width="50" height="50" relative="1" as="geometry">
            <mxPoint x="390" y="410" as="sourcePoint" />
            <mxPoint x="440" y="360" as="targetPoint" />
          </mxGeometry>
        </mxCell>
        <mxCell id="hZAp_NnM1Y1J12ZBTNoi-134" value="&lt;b&gt;&lt;font style=&quot;font-size: 14px;&quot;&gt;Editer&lt;/font&gt;&lt;/b&gt;" style="text;html=1;align=center;verticalAlign=middle;resizable=0;points=[];autosize=1;strokeColor=none;fillColor=none;" parent="1" vertex="1">
          <mxGeometry x="520" y="320" width="60" height="30" as="geometry" />
        </mxCell>
        <mxCell id="hZAp_NnM1Y1J12ZBTNoi-135" value="&lt;span style=&quot;font-size: 14px; text-align: left;&quot;&gt;année_publication&lt;/span&gt;" style="text;html=1;align=center;verticalAlign=middle;resizable=0;points=[];autosize=1;strokeColor=none;fillColor=none;" parent="1" vertex="1">
          <mxGeometry x="480" y="348" width="140" height="30" as="geometry" />
        </mxCell>
        <mxCell id="hZAp_NnM1Y1J12ZBTNoi-136" value="" style="endArrow=none;html=1;rounded=0;entryX=0.579;entryY=1;entryDx=0;entryDy=0;entryPerimeter=0;" parent="1" target="hZAp_NnM1Y1J12ZBTNoi-131" edge="1">
          <mxGeometry width="50" height="50" relative="1" as="geometry">
            <mxPoint x="561" y="480" as="sourcePoint" />
            <mxPoint x="440" y="360" as="targetPoint" />
          </mxGeometry>
        </mxCell>
        <mxCell id="hZAp_NnM1Y1J12ZBTNoi-137" value="&lt;b style=&quot;font-size: 14px;&quot;&gt;(1,n)&lt;/b&gt;" style="text;html=1;align=center;verticalAlign=middle;resizable=0;points=[];autosize=1;strokeColor=none;fillColor=none;" parent="1" vertex="1">
          <mxGeometry x="414" y="310" width="50" height="30" as="geometry" />
        </mxCell>
        <mxCell id="hZAp_NnM1Y1J12ZBTNoi-138" value="&lt;b style=&quot;font-size: 14px;&quot;&gt;(1,n)&lt;/b&gt;" style="text;html=1;align=center;verticalAlign=middle;resizable=0;points=[];autosize=1;strokeColor=none;fillColor=none;" parent="1" vertex="1">
          <mxGeometry x="510" y="448" width="50" height="30" as="geometry" />
        </mxCell>
      </root>
    </mxGraphModel>
  </diagram>
</mxfile>
